<svg width="54" height="16" viewBox="0 0 54 16" fill="none" xmlns="http://www.w3.org/2000/svg">
<path id="Arrow 1" d="M1.65381 7C1.10152 7 0.653809 7.44772 0.653809 8C0.653809 8.55228 1.10152 9 1.65381 9V7ZM53.5917 8.70711C53.9822 8.31658 53.9822 7.68342 53.5917 7.29289L47.2277 0.928932C46.8372 0.538408 46.204 0.538408 45.8135 0.928932C45.423 1.31946 45.423 1.95262 45.8135 2.34315L51.4704 8L45.8135 13.6569C45.423 14.0474 45.423 14.6805 45.8135 15.0711C46.204 15.4616 46.8372 15.4616 47.2277 15.0711L53.5917 8.70711ZM1.65381 9H52.8846V7H1.65381V9Z" fill="white"/>
</svg>
