<svg width="26" height="25" viewBox="0 0 26 25" fill="none" xmlns="http://www.w3.org/2000/svg">
<g id="facebook" clip-path="url(#clip0_2103_258)">
<path id="Vector" d="M26 12.2011C26 5.46098 20.1815 0 13 0C5.81855 0 0 5.46098 0 12.2011C0 18.2908 4.7539 23.3385 10.9687 24.2546V15.7281H7.66633V12.2011H10.9687V9.51291C10.9687 6.45527 12.9083 4.7663 15.8788 4.7663C17.3016 4.7663 18.7892 5.00441 18.7892 5.00441V8.00549H17.1495C15.535 8.00549 15.0312 8.94616 15.0312 9.91092V12.2011H18.6367L18.06 15.7281H15.0312V24.2546C21.246 23.3385 26 18.2908 26 12.2011Z" fill="#B9AF93"/>
</g>
<defs>
<clipPath id="clip0_2103_258">
<rect width="26" height="24.4022" fill="white"/>
</clipPath>
</defs>
</svg>
