<svg width="26" height="25" viewBox="0 0 26 25" fill="none" xmlns="http://www.w3.org/2000/svg">
<g id="instagram" clip-path="url(#clip0_2103_260)">
<path id="Vector" d="M13.0029 5.94468C9.31389 5.94468 6.33832 8.73801 6.33832 12.2011C6.33832 15.6641 9.31389 18.4575 13.0029 18.4575C16.6919 18.4575 19.6674 15.6641 19.6674 12.2011C19.6674 8.73801 16.6919 5.94468 13.0029 5.94468ZM13.0029 16.2686C10.619 16.2686 8.67005 14.4445 8.67005 12.2011C8.67005 9.95772 10.6132 8.13362 13.0029 8.13362C15.3927 8.13362 17.3358 9.95772 17.3358 12.2011C17.3358 14.4445 15.3868 16.2686 13.0029 16.2686ZM21.4946 5.68876C21.4946 6.50008 20.7986 7.14805 19.9401 7.14805C19.0758 7.14805 18.3856 6.49463 18.3856 5.68876C18.3856 4.88289 19.0817 4.22947 19.9401 4.22947C20.7986 4.22947 21.4946 4.88289 21.4946 5.68876ZM25.9086 7.16983C25.8101 5.21504 25.3344 3.4835 23.809 2.05689C22.2893 0.63027 20.4447 0.183772 18.3624 0.0857603C16.2163 -0.0285868 9.78371 -0.0285868 7.63759 0.0857603C5.56108 0.178326 3.71657 0.624824 2.19107 2.05144C0.665588 3.47806 0.195762 5.2096 0.0913553 7.16439C-0.0304518 9.17907 -0.0304518 15.2177 0.0913553 17.2323C0.189961 19.1872 0.665588 20.9187 2.19107 22.3453C3.71657 23.7719 5.55526 24.2184 7.63759 24.3164C9.78371 24.4307 16.2163 24.4307 18.3624 24.3164C20.4447 24.2238 22.2893 23.7774 23.809 22.3453C25.3286 20.9187 25.8042 19.1872 25.9086 17.2323C26.0304 15.2177 26.0304 9.18451 25.9086 7.16983ZM23.1361 19.394C22.6837 20.4614 21.8078 21.2835 20.6652 21.7137C18.954 22.3507 14.8938 22.2037 13.0029 22.2037C11.112 22.2037 7.04596 22.3453 5.34066 21.7137C4.2038 21.289 3.32795 20.4667 2.86971 19.394C2.19107 17.7877 2.34768 13.9762 2.34768 12.2011C2.34768 10.426 2.19688 6.60898 2.86971 5.00812C3.32214 3.94089 4.19799 3.11867 5.34066 2.68851C7.05176 2.05144 11.112 2.19845 13.0029 2.19845C14.8938 2.19845 18.9599 2.05689 20.6652 2.68851C21.802 3.11323 22.6779 3.93544 23.1361 5.00812C23.8147 6.61443 23.6581 10.426 23.6581 12.2011C23.6581 13.9762 23.8147 17.7932 23.1361 19.394Z" fill="#B9AF93"/>
</g>
<defs>
<clipPath id="clip0_2103_260">
<rect width="26" height="24.4022" fill="white"/>
</clipPath>
</defs>
</svg>
