<svg width="26" height="23" viewBox="0 0 26 23" fill="none" xmlns="http://www.w3.org/2000/svg">
<g id="twitter" clip-path="url(#clip0_2103_262)">
<path id="Vector" d="M23.3275 5.52153C23.344 5.76238 23.344 6.00327 23.344 6.24411C23.344 13.5902 17.9824 22.0547 8.18277 22.0547C5.16372 22.0547 2.35915 21.1428 0 19.5601C0.428951 19.6116 0.841347 19.6289 1.2868 19.6289C3.77789 19.6289 6.07108 18.7516 7.90231 17.2547C5.55966 17.2031 3.59645 15.6032 2.92003 13.401C3.25001 13.4525 3.57994 13.487 3.92642 13.487C4.40483 13.487 4.88329 13.4181 5.3287 13.2978C2.88708 12.7816 1.0558 10.5451 1.0558 7.84409V7.7753C1.76517 8.1882 2.59011 8.44626 3.46441 8.48062C2.02913 7.48276 1.0888 5.77959 1.0888 3.85271C1.0888 2.82048 1.35271 1.87426 1.81467 1.04846C4.4378 4.42045 8.38071 6.62254 12.802 6.86344C12.7195 6.45054 12.67 6.02049 12.67 5.59037C12.67 2.52801 15.0457 0.0334473 17.9988 0.0334473C19.533 0.0334473 20.9188 0.704404 21.8921 1.78826C23.0964 1.54742 24.2512 1.08288 25.2741 0.446348C24.8781 1.73669 24.0367 2.82053 22.9315 3.50866C24.0039 3.38829 25.0432 3.07854 26 2.64848C25.2742 3.74951 24.3668 4.7301 23.3275 5.52153Z" fill="#B9AF93"/>
</g>
<defs>
<clipPath id="clip0_2103_262">
<rect width="26" height="22.3687" fill="white" transform="translate(0 0.0334473)"/>
</clipPath>
</defs>
</svg>
