<svg width="29" height="20" viewBox="0 0 29 20" fill="none" xmlns="http://www.w3.org/2000/svg">
<g id="youtube" clip-path="url(#clip0_2103_264)">
<path id="Vector" d="M28.394 3.10642C28.0605 1.91662 27.0778 0.97958 25.8302 0.661581C23.5686 0.0837402 14.5 0.0837402 14.5 0.0837402C14.5 0.0837402 5.43149 0.0837402 3.16988 0.661581C1.92219 0.979631 0.939508 1.91662 0.605983 3.10642C0 5.26298 0 9.76246 0 9.76246C0 9.76246 0 14.262 0.605983 16.4185C0.939508 17.6083 1.92219 18.5063 3.16988 18.8243C5.43149 19.4021 14.5 19.4021 14.5 19.4021C14.5 19.4021 23.5686 19.4021 25.8302 18.8243C27.0778 18.5063 28.0605 17.6083 28.394 16.4185C29 14.262 29 9.76246 29 9.76246C29 9.76246 29 5.26298 28.394 3.10642ZM11.5341 13.8476V5.67727L19.1136 9.76256L11.5341 13.8476Z" fill="#B9AF93"/>
</g>
<defs>
<clipPath id="clip0_2103_264">
<rect width="29" height="19.3184" fill="white" transform="translate(0 0.0837402)"/>
</clipPath>
</defs>
</svg>
