<?xml version="1.0" standalone="no"?>
<!DOCTYPE svg PUBLIC "-//W3C//DTD SVG 20010904//EN"
 "http://www.w3.org/TR/2001/REC-SVG-20010904/DTD/svg10.dtd">
<svg version="1.0" xmlns="http://www.w3.org/2000/svg"
 width="160.000000pt" height="162.000000pt" viewBox="0 0 160.000000 162.000000"
 preserveAspectRatio="xMidYMid meet">

<g transform="translate(0.000000,162.000000) scale(0.100000,-0.100000)"
fill="#000000" stroke="none">
<path d="M714 1250 c-97 -20 -212 -103 -274 -200 -31 -48 -76 -167 -67 -176 2
-3 21 3 41 12 28 14 39 27 51 63 32 97 127 191 232 231 47 18 72 21 134 17 42
-3 89 -12 105 -20 26 -13 33 -13 67 2 l38 16 -28 17 c-73 42 -196 58 -299 38z"/>
<path d="M1140 1165 c-108 -30 -200 -83 -278 -162 -41 -41 -72 -76 -70 -78 2
-3 82 30 176 71 95 42 180 73 188 70 9 -3 14 -15 12 -28 -3 -19 -66 -51 -443
-218 -242 -107 -446 -199 -452 -203 -17 -11 -16 -44 1 -50 7 -3 89 28 182 70
143 63 439 193 602 264 l43 19 -7 -23 c-3 -12 -24 -62 -45 -111 -21 -50 -37
-91 -35 -93 7 -8 176 121 234 178 90 90 209 276 188 296 -15 15 -238 13 -296
-2z m174 -46 c33 -26 34 -62 1 -94 -32 -33 -68 -32 -94 1 -27 35 -26 59 4 89
30 30 54 31 89 4z"/>
<path d="M727 1122 c-22 -24 -21 -65 1 -85 40 -36 102 -9 102 45 0 51 -69 78
-103 40z"/>
<path d="M577 1033 c-13 -13 -7 -61 9 -67 42 -16 74 16 54 54 -10 19 -49 27
-63 13z"/>
<path d="M415 817 c-192 -86 -231 -106 -233 -125 -2 -12 3 -24 10 -27 7 -3
124 43 258 103 198 88 245 112 245 128 0 37 -50 23 -280 -79z"/>
<path d="M1197 751 c-22 -16 -46 -45 -57 -69 -41 -90 -121 -167 -208 -198
-107 -37 -202 -78 -202 -86 0 -4 31 -8 69 -8 193 0 364 127 422 313 12 37 20
69 18 71 -2 2 -21 -9 -42 -23z"/>
<path d="M855 733 c-32 -8 -64 -44 -71 -78 -12 -66 48 -125 114 -110 90 19
102 145 18 180 -20 8 -37 14 -38 14 -2 -1 -12 -3 -23 -6z"/>
<path d="M535 604 c-130 -60 -151 -74 -142 -98 10 -26 36 -19 168 40 136 62
155 75 146 98 -10 26 -45 17 -172 -40z"/>
<path d="M570 482 c-96 -44 -126 -63 -128 -79 -6 -38 27 -33 150 23 133 60
154 74 145 98 -10 26 -35 19 -167 -42z"/>
</g>
</svg>
